<svg width="1241" height="210" viewBox="0 0 1241 210" fill="none" xmlns="http://www.w3.org/2000/svg">
<path d="M72.6042 57.6458C84.8802 57.6458 95.9062 60.3228 105.688 65.6666C115.479 70.9999 123.13 78.7864 128.646 89.0208C134.156 99.2447 136.917 111.562 136.917 125.979V191.625C136.917 195.542 135.625 198.792 133.042 201.375C130.469 203.958 127.229 205.25 123.312 205.25C119.396 205.25 116.146 203.958 113.562 201.375C110.979 198.792 109.688 195.542 109.688 191.625V125.979C109.688 111.562 105.818 100.667 98.0833 93.2916C90.3438 85.9062 80.0677 82.2083 67.25 82.2083C59.776 82.2083 52.9688 83.7239 46.8333 86.7499C40.6927 89.7812 35.8854 93.8749 32.4167 99.0416C28.9583 104.198 27.2292 109.974 27.2292 116.375V191.625C27.2292 195.542 25.9792 198.792 23.4792 201.375C20.9896 203.958 17.6979 205.25 13.6042 205.25C9.69792 205.25 6.45833 203.958 3.875 201.375C1.29167 198.792 0 195.542 0 191.625V72.6041C0 68.5103 1.29167 65.2187 3.875 62.7291C6.45833 60.2291 9.69792 58.9791 13.6042 58.9791C17.6979 58.9791 20.9896 60.2291 23.4792 62.7291C25.9792 65.2187 27.2292 68.5103 27.2292 72.6041V75.5416C32.9219 69.8489 39.6771 65.4478 47.5 62.3333C55.3333 59.2083 63.6979 57.6458 72.6042 57.6458Z" fill="#090A1A"/>
<path d="M302.381 58.7291C306.464 58.7291 309.746 59.9739 312.235 62.4583C314.735 64.9479 315.985 68.2395 315.985 72.3333V191.375C315.985 195.281 314.735 198.521 312.235 201.104C309.746 203.687 306.464 204.979 302.381 204.979C298.464 204.979 295.214 203.687 292.631 201.104C290.048 198.521 288.756 195.281 288.756 191.375V188.437C283.058 194.135 276.298 198.536 268.464 201.646C260.642 204.76 252.287 206.312 243.402 206.312C231.121 206.312 220.089 203.646 210.298 198.312C200.506 192.969 192.85 185.182 187.339 174.958C181.824 164.724 179.069 152.396 179.069 137.979V72.3333C179.069 68.4166 180.36 65.177 182.944 62.6041C185.527 60.0208 188.767 58.7291 192.673 58.7291C196.589 58.7291 199.839 60.0208 202.423 62.6041C205.006 65.177 206.298 68.4166 206.298 72.3333V137.979C206.298 152.396 210.162 163.302 217.902 170.687C225.636 178.062 235.912 181.75 248.735 181.75C256.204 181.75 263.011 180.245 269.152 177.229C275.287 174.203 280.089 170.115 283.548 164.958C287.017 159.792 288.756 154.01 288.756 147.604V72.3333C288.756 68.2395 290.048 64.9479 292.631 62.4583C295.214 59.9739 298.464 58.7291 302.381 58.7291Z" fill="#090A1A"/>
<path d="M430.2 206.042C416.142 206.042 403.512 202.844 392.304 196.437C381.095 190.036 372.33 181.187 366.012 169.896C359.689 158.594 356.533 146 356.533 132.125C356.533 117.891 359.601 105.125 365.741 93.8333C371.877 82.5312 380.46 73.7187 391.491 67.3958C402.533 61.0781 414.991 57.9166 428.866 57.9166C449.866 57.9166 467.304 65.927 481.179 81.9375C482.955 83.8958 483.845 86.2083 483.845 88.875C483.845 92.7916 481.887 96.0833 477.97 98.75C476.189 100 474.148 100.625 471.845 100.625C467.747 100.625 464.273 99.0208 461.429 95.8125C456.981 91.0104 452.137 87.4948 446.887 85.2708C441.637 83.052 435.627 81.9375 428.866 81.9375C415.168 81.9375 404.054 86.5208 395.512 95.6875C386.97 104.854 382.7 117 382.7 132.125C382.7 141.724 384.7 150.307 388.7 157.875C392.7 165.432 398.304 171.349 405.512 175.625C412.72 179.891 420.95 182.021 430.2 182.021C442.293 182.021 452.08 178.911 459.554 172.687C462.939 170.203 466.231 168.958 469.429 168.958C471.929 168.958 474.241 169.76 476.366 171.354C479.752 174.203 481.45 177.406 481.45 180.958C481.45 183.625 480.377 186.031 478.241 188.167C465.434 200.083 449.418 206.042 430.2 206.042Z" fill="#090A1A"/>
<path d="M590.589 57.9166C604.298 57.9166 616.704 61.1666 627.818 67.6666C638.943 74.1562 647.746 83.052 654.235 94.3541C660.735 105.646 663.985 118.24 663.985 132.125V191.625C663.985 195.542 662.693 198.792 660.11 201.375C657.537 203.958 654.298 205.25 650.381 205.25C646.464 205.25 643.214 203.958 640.631 201.375C638.048 198.792 636.756 195.542 636.756 191.625V181.75C630.532 189.406 622.969 195.37 614.068 199.646C605.178 203.911 595.574 206.042 585.256 206.042C572.449 206.042 560.839 202.844 550.423 196.437C540.016 190.036 531.829 181.187 525.86 169.896C519.902 158.594 516.923 146 516.923 132.125C516.923 118.24 520.121 105.646 526.527 94.3541C532.943 83.052 541.798 74.1562 553.089 67.6666C564.391 61.1666 576.891 57.9166 590.589 57.9166ZM590.589 182.021C599.49 182.021 607.537 179.849 614.735 175.5C621.943 171.141 627.594 165.182 631.693 157.625C635.787 150.057 637.839 141.557 637.839 132.125C637.839 122.698 635.787 114.156 631.693 106.5C627.594 98.8489 621.943 92.8437 614.735 88.4791C607.537 84.1198 599.49 81.9375 590.589 81.9375C581.699 81.9375 573.652 84.1198 566.443 88.4791C559.235 92.8437 553.537 98.8489 549.36 106.5C545.178 114.156 543.089 122.698 543.089 132.125C543.089 141.557 545.178 150.057 549.36 157.625C553.537 165.182 559.235 171.141 566.443 175.5C573.652 179.849 581.699 182.021 590.589 182.021Z" fill="#090A1A"/>
<path d="M757.644 206.042C745.545 206.042 734.154 204.177 723.477 200.437C712.811 196.703 704.446 191.812 698.394 185.771C696.087 183.453 694.936 180.687 694.936 177.479C694.936 173.219 696.712 169.75 700.269 167.083C703.644 164.583 706.753 163.333 709.602 163.333C713.17 163.333 716.55 164.937 719.748 168.146C723.133 171.885 728.206 175.135 734.956 177.896C741.717 180.646 748.925 182.021 756.581 182.021C766.717 182.021 774.587 180.333 780.186 176.958C785.795 173.573 788.602 169.031 788.602 163.333C788.602 157.823 785.842 153.245 780.331 149.604C774.816 145.953 765.477 142.885 752.311 140.396C718.144 133.812 701.061 119.76 701.061 98.2291C701.061 89.5104 703.633 82.125 708.79 76.0833C713.956 70.0312 720.717 65.4895 729.081 62.4583C737.456 59.4323 746.357 57.9166 755.79 57.9166C767.342 57.9166 777.706 59.7864 786.873 63.5208C796.04 67.2604 803.29 72.4166 808.623 79C810.941 81.8489 812.102 84.6979 812.102 87.5416C812.102 90.5729 810.587 93.3281 807.561 95.8125C805.602 97.2448 803.107 97.9583 800.081 97.9583C795.456 97.9583 791.274 96.2656 787.54 92.875C783.092 88.7916 778.378 85.9062 773.394 84.2083C768.42 82.5156 762.373 81.6666 755.248 81.6666C747.066 81.6666 740.352 83.052 735.102 85.8125C729.852 88.5625 727.227 92.4323 727.227 97.4166C727.227 100.974 728.113 103.953 729.894 106.354C731.67 108.76 735.05 110.99 740.04 113.042C745.024 115.083 752.232 117.083 761.665 119.042C781.05 122.958 794.795 128.391 802.894 135.333C810.988 142.266 815.04 151.245 815.04 162.271C815.04 170.469 812.811 177.896 808.352 184.562C803.904 191.229 797.373 196.479 788.748 200.312C780.123 204.135 769.753 206.042 757.644 206.042Z" fill="#090A1A"/>
<path d="M911.638 178.292C914.847 178.292 917.56 179.542 919.784 182.042C922.003 184.531 923.117 187.724 923.117 191.625C923.117 195.542 921.643 198.75 918.701 201.25C915.768 203.74 911.992 204.979 907.367 204.979H902.555C893.847 204.979 885.888 202.719 878.68 198.187C871.472 193.646 865.815 187.458 861.722 179.625C857.638 171.792 855.597 162.99 855.597 153.208V87.2708H843.305C839.565 87.2708 836.539 86.2083 834.222 84.0833C831.914 81.9479 830.763 79.2708 830.763 76.0625C830.763 72.5104 831.914 69.6666 834.222 67.5416C836.539 65.4062 839.565 64.3333 843.305 64.3333H855.597V25.8958C855.597 21.9791 856.836 18.7812 859.326 16.2916C861.81 13.7916 865.013 12.5416 868.93 12.5416C872.847 12.5416 876.044 13.7916 878.534 16.2916C881.034 18.7812 882.284 21.9791 882.284 25.8958V64.3333H904.972C908.706 64.3333 911.727 65.4062 914.034 67.5416C916.352 69.6666 917.513 72.5104 917.513 76.0625C917.513 79.2708 916.352 81.9479 914.034 84.0833C911.727 86.2083 908.706 87.2708 904.972 87.2708H882.284V153.208C882.284 160.323 884.232 166.281 888.138 171.083C892.055 175.891 896.857 178.292 902.555 178.292H911.638Z" fill="#090A1A"/>
<path d="M964.216 209.25C959.227 209.25 954.909 207.427 951.258 203.792C947.617 200.141 945.8 195.823 945.8 190.833C945.8 185.667 947.617 181.266 951.258 177.625C954.909 173.974 959.227 172.146 964.216 172.146C969.185 172.146 973.492 173.974 977.133 177.625C980.784 181.266 982.612 185.667 982.612 190.833C982.612 195.823 980.831 200.141 977.279 203.792C973.721 207.427 969.367 209.25 964.216 209.25Z" fill="#090A1A"/>
<path d="M1036.25 204.979C1032.35 204.979 1029.11 203.688 1026.52 201.104C1023.94 198.521 1022.65 195.281 1022.65 191.375V72.6042C1022.65 68.5104 1023.94 65.2188 1026.52 62.7292C1029.11 60.2292 1032.35 58.9792 1036.25 58.9792C1040.35 58.9792 1043.64 60.2292 1046.13 62.7292C1048.63 65.2188 1049.88 68.5104 1049.88 72.6042V191.375C1049.88 195.281 1048.63 198.521 1046.13 201.104C1043.64 203.688 1040.35 204.979 1036.25 204.979ZM1036.25 35.2292C1031.45 35.2292 1027.3 33.5 1023.84 30.0417C1020.38 26.5729 1018.65 22.4323 1018.65 17.625C1018.65 12.8229 1020.38 8.68229 1023.84 5.20833C1027.3 1.73958 1031.45 0 1036.25 0C1041.05 0 1045.2 1.73958 1048.67 5.20833C1052.14 8.68229 1053.88 12.8229 1053.88 17.625C1053.88 22.4323 1052.14 26.5729 1048.67 30.0417C1045.2 33.5 1041.05 35.2292 1036.25 35.2292Z" fill="#090A1A"/>
<path d="M1166.76 206.042C1152.52 206.042 1139.81 202.891 1128.6 196.583C1117.39 190.266 1108.67 181.5 1102.43 170.292C1096.21 159.073 1093.1 146.349 1093.1 132.125C1093.1 117.708 1096.21 104.896 1102.43 93.6875C1108.67 82.4791 1117.39 73.7187 1128.6 67.3958C1139.81 61.0781 1152.52 57.9166 1166.76 57.9166C1180.82 57.9166 1193.41 61.0781 1204.53 67.3958C1215.66 73.7187 1224.37 82.4791 1230.68 93.6875C1237 104.896 1240.16 117.708 1240.16 132.125C1240.16 146.349 1237.04 159.073 1230.81 170.292C1224.58 181.5 1215.91 190.266 1204.78 196.583C1193.67 202.891 1181 206.042 1166.76 206.042ZM1166.76 182.021C1175.83 182.021 1183.97 179.891 1191.18 175.625C1198.39 171.349 1203.99 165.432 1207.99 157.875C1212 150.307 1214.01 141.724 1214.01 132.125C1214.01 122.516 1212 113.885 1207.99 106.229C1203.99 98.5781 1198.39 92.6198 1191.18 88.3541C1183.97 84.0781 1175.83 81.9375 1166.76 81.9375C1157.69 81.9375 1149.56 84.0781 1142.35 88.3541C1135.14 92.6198 1129.48 98.5781 1125.39 106.229C1121.31 113.885 1119.26 122.516 1119.26 132.125C1119.26 141.724 1121.31 150.307 1125.39 157.875C1129.48 165.432 1135.14 171.349 1142.35 175.625C1149.56 179.891 1157.69 182.021 1166.76 182.021Z" fill="#090A1A"/>
</svg>
